<mxfile host="app.diagrams.net" agent="Mozilla/5.0 (Macintosh; Intel Mac OS X 10_15_7) AppleWebKit/537.36 (KHTML, like Gecko) Chrome/128.0.0.0 Safari/537.36" version="24.8.4">
  <diagram name="Page-1" id="nVBDxi55UeCHHlhTbFJY">
    <mxGraphModel dx="889" dy="572" grid="1" gridSize="10" guides="1" tooltips="1" connect="1" arrows="1" fold="1" page="1" pageScale="1" pageWidth="827" pageHeight="1169" math="0" shadow="0">
      <root>
        <mxCell id="0" />
        <mxCell id="1" parent="0" />
        <mxCell id="kQ5llFyRg5BjpRS1uALz-22" value="" style="shape=flexArrow;endArrow=classic;html=1;rounded=0;" edge="1" parent="1">
          <mxGeometry width="50" height="50" relative="1" as="geometry">
            <mxPoint x="320" y="160" as="sourcePoint" />
            <mxPoint x="440" y="160" as="targetPoint" />
          </mxGeometry>
        </mxCell>
        <mxCell id="kQ5llFyRg5BjpRS1uALz-55" value="Event Framework" style="edgeLabel;html=1;align=center;verticalAlign=middle;resizable=0;points=[];" vertex="1" connectable="0" parent="kQ5llFyRg5BjpRS1uALz-22">
          <mxGeometry x="-0.0666" y="3" relative="1" as="geometry">
            <mxPoint x="-6" y="-7" as="offset" />
          </mxGeometry>
        </mxCell>
        <mxCell id="kQ5llFyRg5BjpRS1uALz-25" value="Service 1" style="image;aspect=fixed;perimeter=ellipsePerimeter;html=1;align=center;shadow=0;dashed=0;spacingTop=3;image=img/lib/active_directory/generic_server.svg;" vertex="1" parent="1">
          <mxGeometry x="480" y="50" width="28" height="50" as="geometry" />
        </mxCell>
        <mxCell id="kQ5llFyRg5BjpRS1uALz-26" value="Service 5" style="image;aspect=fixed;perimeter=ellipsePerimeter;html=1;align=center;shadow=0;dashed=0;spacingTop=3;image=img/lib/active_directory/generic_server.svg;" vertex="1" parent="1">
          <mxGeometry x="640" y="10" width="28" height="50" as="geometry" />
        </mxCell>
        <mxCell id="kQ5llFyRg5BjpRS1uALz-27" value="Service 4" style="image;aspect=fixed;perimeter=ellipsePerimeter;html=1;align=center;shadow=0;dashed=0;spacingTop=3;image=img/lib/active_directory/generic_server.svg;" vertex="1" parent="1">
          <mxGeometry x="780" y="60" width="28" height="50" as="geometry" />
        </mxCell>
        <mxCell id="kQ5llFyRg5BjpRS1uALz-28" value="Service 3" style="image;aspect=fixed;perimeter=ellipsePerimeter;html=1;align=center;shadow=0;dashed=0;spacingTop=3;image=img/lib/active_directory/generic_server.svg;" vertex="1" parent="1">
          <mxGeometry x="770" y="250" width="28" height="50" as="geometry" />
        </mxCell>
        <mxCell id="kQ5llFyRg5BjpRS1uALz-36" value="Service 2" style="image;aspect=fixed;perimeter=ellipsePerimeter;html=1;align=center;shadow=0;dashed=0;spacingTop=3;image=img/lib/active_directory/generic_server.svg;" vertex="1" parent="1">
          <mxGeometry x="480" y="220" width="28" height="50" as="geometry" />
        </mxCell>
        <mxCell id="kQ5llFyRg5BjpRS1uALz-38" value="" style="sketch=0;points=[[0,0,0],[0.25,0,0],[0.5,0,0],[0.75,0,0],[1,0,0],[0,1,0],[0.25,1,0],[0.5,1,0],[0.75,1,0],[1,1,0],[0,0.25,0],[0,0.5,0],[0,0.75,0],[1,0.25,0],[1,0.5,0],[1,0.75,0]];outlineConnect=0;fontColor=#232F3E;fillColor=#E7157B;strokeColor=#ffffff;dashed=0;verticalLabelPosition=bottom;verticalAlign=top;align=center;html=1;fontSize=12;fontStyle=0;aspect=fixed;shape=mxgraph.aws4.resourceIcon;resIcon=mxgraph.aws4.eventbridge;" vertex="1" parent="1">
          <mxGeometry x="610" y="122" width="68" height="68" as="geometry" />
        </mxCell>
        <mxCell id="kQ5llFyRg5BjpRS1uALz-42" value="" style="endArrow=classic;startArrow=classic;html=1;rounded=0;exitX=1;exitY=0.5;exitDx=0;exitDy=0;entryX=0;entryY=0;entryDx=0;entryDy=0;entryPerimeter=0;" edge="1" parent="1" source="kQ5llFyRg5BjpRS1uALz-25" target="kQ5llFyRg5BjpRS1uALz-38">
          <mxGeometry width="50" height="50" relative="1" as="geometry">
            <mxPoint x="520" y="170" as="sourcePoint" />
            <mxPoint x="570" y="120" as="targetPoint" />
          </mxGeometry>
        </mxCell>
        <mxCell id="kQ5llFyRg5BjpRS1uALz-43" value="Events" style="edgeLabel;html=1;align=center;verticalAlign=middle;resizable=0;points=[];" vertex="1" connectable="0" parent="kQ5llFyRg5BjpRS1uALz-42">
          <mxGeometry x="-0.0362" y="-4" relative="1" as="geometry">
            <mxPoint as="offset" />
          </mxGeometry>
        </mxCell>
        <mxCell id="kQ5llFyRg5BjpRS1uALz-44" value="" style="endArrow=classic;startArrow=classic;html=1;rounded=0;exitX=1;exitY=0;exitDx=0;exitDy=0;entryX=0;entryY=0.75;entryDx=0;entryDy=0;entryPerimeter=0;" edge="1" parent="1" source="kQ5llFyRg5BjpRS1uALz-36" target="kQ5llFyRg5BjpRS1uALz-38">
          <mxGeometry width="50" height="50" relative="1" as="geometry">
            <mxPoint x="550" y="200" as="sourcePoint" />
            <mxPoint x="672" y="267" as="targetPoint" />
          </mxGeometry>
        </mxCell>
        <mxCell id="kQ5llFyRg5BjpRS1uALz-45" value="Events" style="edgeLabel;html=1;align=center;verticalAlign=middle;resizable=0;points=[];" vertex="1" connectable="0" parent="kQ5llFyRg5BjpRS1uALz-44">
          <mxGeometry x="-0.0362" y="-4" relative="1" as="geometry">
            <mxPoint as="offset" />
          </mxGeometry>
        </mxCell>
        <mxCell id="kQ5llFyRg5BjpRS1uALz-46" value="" style="endArrow=classic;startArrow=classic;html=1;rounded=0;exitX=1;exitY=0.5;exitDx=0;exitDy=0;entryX=0;entryY=0.75;entryDx=0;entryDy=0;exitPerimeter=0;" edge="1" parent="1" source="kQ5llFyRg5BjpRS1uALz-38" target="kQ5llFyRg5BjpRS1uALz-27">
          <mxGeometry width="50" height="50" relative="1" as="geometry">
            <mxPoint x="700" y="140" as="sourcePoint" />
            <mxPoint x="822" y="207" as="targetPoint" />
          </mxGeometry>
        </mxCell>
        <mxCell id="kQ5llFyRg5BjpRS1uALz-47" value="Events" style="edgeLabel;html=1;align=center;verticalAlign=middle;resizable=0;points=[];" vertex="1" connectable="0" parent="kQ5llFyRg5BjpRS1uALz-46">
          <mxGeometry x="-0.0362" y="-4" relative="1" as="geometry">
            <mxPoint as="offset" />
          </mxGeometry>
        </mxCell>
        <mxCell id="kQ5llFyRg5BjpRS1uALz-48" value="" style="endArrow=classic;startArrow=classic;html=1;rounded=0;exitX=0.5;exitY=0;exitDx=0;exitDy=0;entryX=0.5;entryY=1;entryDx=0;entryDy=0;exitPerimeter=0;" edge="1" parent="1" source="kQ5llFyRg5BjpRS1uALz-38" target="kQ5llFyRg5BjpRS1uALz-26">
          <mxGeometry width="50" height="50" relative="1" as="geometry">
            <mxPoint x="590" y="40" as="sourcePoint" />
            <mxPoint x="712" y="107" as="targetPoint" />
          </mxGeometry>
        </mxCell>
        <mxCell id="kQ5llFyRg5BjpRS1uALz-49" value="Events" style="edgeLabel;html=1;align=center;verticalAlign=middle;resizable=0;points=[];" vertex="1" connectable="0" parent="kQ5llFyRg5BjpRS1uALz-48">
          <mxGeometry x="-0.0362" y="-4" relative="1" as="geometry">
            <mxPoint as="offset" />
          </mxGeometry>
        </mxCell>
        <mxCell id="kQ5llFyRg5BjpRS1uALz-50" value="" style="endArrow=classic;startArrow=classic;html=1;rounded=0;entryX=0.25;entryY=0;entryDx=0;entryDy=0;" edge="1" parent="1" source="kQ5llFyRg5BjpRS1uALz-38" target="kQ5llFyRg5BjpRS1uALz-28">
          <mxGeometry width="50" height="50" relative="1" as="geometry">
            <mxPoint x="670" y="210" as="sourcePoint" />
            <mxPoint x="720" y="240" as="targetPoint" />
          </mxGeometry>
        </mxCell>
        <mxCell id="kQ5llFyRg5BjpRS1uALz-51" value="Events" style="edgeLabel;html=1;align=center;verticalAlign=middle;resizable=0;points=[];" vertex="1" connectable="0" parent="kQ5llFyRg5BjpRS1uALz-50">
          <mxGeometry x="-0.0362" y="-4" relative="1" as="geometry">
            <mxPoint as="offset" />
          </mxGeometry>
        </mxCell>
        <mxCell id="kQ5llFyRg5BjpRS1uALz-52" value="" style="group" vertex="1" connectable="0" parent="1">
          <mxGeometry x="60" y="30" width="208" height="290" as="geometry" />
        </mxCell>
        <mxCell id="kQ5llFyRg5BjpRS1uALz-20" value="" style="edgeStyle=orthogonalEdgeStyle;rounded=0;orthogonalLoop=1;jettySize=auto;html=1;" edge="1" parent="kQ5llFyRg5BjpRS1uALz-52" source="kQ5llFyRg5BjpRS1uALz-1" target="kQ5llFyRg5BjpRS1uALz-19">
          <mxGeometry relative="1" as="geometry" />
        </mxCell>
        <mxCell id="kQ5llFyRg5BjpRS1uALz-21" value="webhook" style="edgeLabel;html=1;align=center;verticalAlign=middle;resizable=0;points=[];" vertex="1" connectable="0" parent="kQ5llFyRg5BjpRS1uALz-20">
          <mxGeometry x="0.0637" y="2" relative="1" as="geometry">
            <mxPoint as="offset" />
          </mxGeometry>
        </mxCell>
        <mxCell id="kQ5llFyRg5BjpRS1uALz-1" value="Service 1" style="image;aspect=fixed;perimeter=ellipsePerimeter;html=1;align=center;shadow=0;dashed=0;spacingTop=3;image=img/lib/active_directory/generic_server.svg;" vertex="1" parent="kQ5llFyRg5BjpRS1uALz-52">
          <mxGeometry y="110" width="28" height="50" as="geometry" />
        </mxCell>
        <mxCell id="kQ5llFyRg5BjpRS1uALz-2" value="Service 5" style="image;aspect=fixed;perimeter=ellipsePerimeter;html=1;align=center;shadow=0;dashed=0;spacingTop=3;image=img/lib/active_directory/generic_server.svg;" vertex="1" parent="kQ5llFyRg5BjpRS1uALz-52">
          <mxGeometry x="130" width="28" height="50" as="geometry" />
        </mxCell>
        <mxCell id="kQ5llFyRg5BjpRS1uALz-3" value="Service 4" style="image;aspect=fixed;perimeter=ellipsePerimeter;html=1;align=center;shadow=0;dashed=0;spacingTop=3;image=img/lib/active_directory/generic_server.svg;" vertex="1" parent="kQ5llFyRg5BjpRS1uALz-52">
          <mxGeometry x="180" y="110" width="28" height="50" as="geometry" />
        </mxCell>
        <mxCell id="kQ5llFyRg5BjpRS1uALz-4" value="Service 3" style="image;aspect=fixed;perimeter=ellipsePerimeter;html=1;align=center;shadow=0;dashed=0;spacingTop=3;image=img/lib/active_directory/generic_server.svg;" vertex="1" parent="kQ5llFyRg5BjpRS1uALz-52">
          <mxGeometry x="140" y="210" width="28" height="50" as="geometry" />
        </mxCell>
        <mxCell id="kQ5llFyRg5BjpRS1uALz-12" value="" style="endArrow=classic;html=1;rounded=0;entryX=0;entryY=1;entryDx=0;entryDy=0;exitX=0.75;exitY=0;exitDx=0;exitDy=0;" edge="1" parent="kQ5llFyRg5BjpRS1uALz-52" source="kQ5llFyRg5BjpRS1uALz-1" target="kQ5llFyRg5BjpRS1uALz-2">
          <mxGeometry width="50" height="50" relative="1" as="geometry">
            <mxPoint x="28" y="130" as="sourcePoint" />
            <mxPoint x="78" y="80" as="targetPoint" />
          </mxGeometry>
        </mxCell>
        <mxCell id="kQ5llFyRg5BjpRS1uALz-16" value="OTJ" style="edgeLabel;html=1;align=center;verticalAlign=middle;resizable=0;points=[];" vertex="1" connectable="0" parent="kQ5llFyRg5BjpRS1uALz-12">
          <mxGeometry x="-0.0092" y="-1" relative="1" as="geometry">
            <mxPoint as="offset" />
          </mxGeometry>
        </mxCell>
        <mxCell id="kQ5llFyRg5BjpRS1uALz-13" value="" style="endArrow=classic;html=1;rounded=0;entryX=0;entryY=0.5;entryDx=0;entryDy=0;exitX=1;exitY=0.5;exitDx=0;exitDy=0;" edge="1" parent="kQ5llFyRg5BjpRS1uALz-52" source="kQ5llFyRg5BjpRS1uALz-1" target="kQ5llFyRg5BjpRS1uALz-3">
          <mxGeometry width="50" height="50" relative="1" as="geometry">
            <mxPoint x="39" y="200" as="sourcePoint" />
            <mxPoint x="89" y="150" as="targetPoint" />
          </mxGeometry>
        </mxCell>
        <mxCell id="kQ5llFyRg5BjpRS1uALz-17" value="Kafka" style="edgeLabel;html=1;align=center;verticalAlign=middle;resizable=0;points=[];" vertex="1" connectable="0" parent="kQ5llFyRg5BjpRS1uALz-13">
          <mxGeometry x="0.0132" relative="1" as="geometry">
            <mxPoint as="offset" />
          </mxGeometry>
        </mxCell>
        <mxCell id="kQ5llFyRg5BjpRS1uALz-14" value="" style="endArrow=classic;html=1;rounded=0;entryX=0.25;entryY=0;entryDx=0;entryDy=0;exitX=0.75;exitY=1;exitDx=0;exitDy=0;" edge="1" parent="kQ5llFyRg5BjpRS1uALz-52" source="kQ5llFyRg5BjpRS1uALz-1" target="kQ5llFyRg5BjpRS1uALz-4">
          <mxGeometry width="50" height="50" relative="1" as="geometry">
            <mxPoint x="20" y="190" as="sourcePoint" />
            <mxPoint x="70" y="140" as="targetPoint" />
          </mxGeometry>
        </mxCell>
        <mxCell id="kQ5llFyRg5BjpRS1uALz-18" value="RMI" style="edgeLabel;html=1;align=center;verticalAlign=middle;resizable=0;points=[];" vertex="1" connectable="0" parent="kQ5llFyRg5BjpRS1uALz-14">
          <mxGeometry x="0.1203" y="1" relative="1" as="geometry">
            <mxPoint as="offset" />
          </mxGeometry>
        </mxCell>
        <mxCell id="kQ5llFyRg5BjpRS1uALz-19" value="Service 2" style="image;aspect=fixed;perimeter=ellipsePerimeter;html=1;align=center;shadow=0;dashed=0;spacingTop=3;image=img/lib/active_directory/generic_server.svg;" vertex="1" parent="kQ5llFyRg5BjpRS1uALz-52">
          <mxGeometry y="240" width="28" height="50" as="geometry" />
        </mxCell>
      </root>
    </mxGraphModel>
  </diagram>
</mxfile>
